# Blender 3.4.1
# www.blender.org
o Cube
v -0.930377 0.696407 -0.930378
v 1.975355 -0.000000 -1.909689
v 0.930377 0.696407 -0.930378
v 1.975355 0.000000 1.909689
v -0.930377 0.696408 0.930376
v -1.975355 -0.000000 -1.909689
v 0.930377 0.696408 0.930376
v -1.975355 0.000000 1.909689
v 0.930377 0.401060 -0.930377
v 1.049396 0.350416 -1.046071
v 0.930377 0.401061 0.930377
v 1.049396 0.350417 1.046071
v -0.930377 0.401060 -0.930377
v -1.049396 0.350416 -1.046071
v -0.930377 0.401061 0.930377
v -1.049396 0.350417 1.046071
v 0.997620 0.796408 0.997619
v -0.997620 0.796408 0.997619
v -0.997620 0.796407 -0.997621
v 0.997620 0.796407 -0.997621
v 0.997620 0.849647 0.997619
v 0.950859 0.896408 0.950858
v -0.950859 0.896408 0.950858
v -0.997620 0.849647 0.997619
v -0.950859 0.896407 -0.950860
v -0.997620 0.849646 -0.997621
v 0.950859 0.896407 -0.950860
v 0.997620 0.849646 -0.997621
v 0.997620 0.849647 0.997619
v 0.950859 0.896408 0.950858
v -0.950859 0.896408 0.950858
v -0.997620 0.849647 0.997619
v -0.950859 0.896407 -0.950860
v -0.997620 0.849646 -0.997621
v 0.950859 0.896407 -0.950860
v 0.997620 0.849646 -0.997621
v 0.518745 0.896408 0.513131
v -0.518745 0.896408 0.513131
v -0.518745 0.896407 -0.510959
v 0.518745 0.896407 -0.510959
v 0.950859 0.896408 0.950858
v -0.950859 0.896408 0.950858
v -0.950859 0.896407 -0.950860
v 0.950859 0.896407 -0.950860
v 0.104775 2.475008 0.109901
v -0.104775 2.475008 0.109901
v -0.104775 2.475008 -0.107730
v 0.104775 2.475008 -0.107730
v 0.289381 1.715601 0.293219
v 0.289381 1.715601 -0.291047
v -0.104775 1.743006 -0.107730
v -0.289381 1.715601 0.293219
v 1.854262 1.492691 1.762677
v 1.854262 1.492691 -1.760505
v -2.128417 1.491872 -2.034473
v -1.854262 1.488892 1.762677
v 2.128417 1.491873 2.036645
v 2.128417 1.491872 -2.034473
v -2.128417 1.491873 2.036645
v -1.854262 1.488892 -1.760505
v -0.289381 1.715601 -0.291047
v 0.104775 1.743006 -0.107730
v 0.104775 1.743006 0.109901
v -0.104775 1.743006 0.109901
v -0.703315 1.004181 -0.667079
v -0.163004 1.010231 -0.214028
v 0.703315 1.004182 0.669251
v 0.163004 1.010231 0.216200
v -0.703315 1.004182 0.669251
v -0.163004 1.010231 0.216200
v 0.703315 1.004182 -0.667079
v 0.163004 1.010231 -0.214028
v 0.191342 2.624354 0.198973
v -0.191342 2.624354 0.198973
v -0.191008 2.624354 -0.196989
v 0.191008 2.624354 -0.196989
v -0.104775 2.475008 0.003531
v 0.104775 2.475008 0.003531
v -0.104775 1.743006 0.003531
v 0.104775 1.743006 0.003531
v 0.271596 2.624354 0.005853
v -0.271596 2.624354 0.005853
v 0.000000 2.475008 0.109901
v 0.000000 1.743006 -0.107730
v 0.000000 2.475008 -0.107730
v 0.000000 2.624354 -0.262213
v 0.000000 1.743006 0.109901
v 0.000000 2.624354 0.263339
v 0.000000 2.624354 -0.297496
v 0.216358 2.624354 -0.223616
v 0.307637 2.624354 0.006136
v 0.000000 2.624354 0.298567
v -0.216358 2.624354 0.225786
v -0.307637 2.624354 0.006136
v -0.216358 2.624354 -0.223616
v 0.216358 2.624354 0.225786
v 0.000000 2.557171 0.005695
v 0.179936 2.557171 0.004779
v -0.179936 2.557171 0.004779
v 0.000000 2.557171 -0.172819
v 0.000000 2.557171 0.175367
v 0.126545 2.557171 -0.129607
v -0.126767 2.557171 0.132724
v -0.126545 2.557171 -0.129607
v 0.126767 2.557171 0.132724
vn -0.0000 0.9266 0.3760
vn -0.3539 0.9353 -0.0000
vn 0.8298 -0.5580 -0.0000
vn -0.0000 -1.0000 -0.0000
vn -1.0000 -0.0000 -0.0000
vn 0.3539 0.9353 -0.0000
vn -0.0000 0.9161 0.4010
vn -0.6411 -0.7461 0.1795
vn -0.0000 1.0000 -0.0000
vn -0.0000 0.9266 -0.3760
vn 1.0000 -0.0000 -0.0000
vn -0.0000 -0.0000 1.0000
vn -0.0000 -0.0000 -1.0000
vn -0.8298 -0.5580 -0.0000
vn -0.0000 -0.5580 0.8298
vn -0.0000 -0.5580 -0.8298
vn -0.0000 -0.0000 -0.0000
vn -0.0000 0.7071 0.7071
vn -0.7071 0.7071 -0.0000
vn -0.0000 0.7071 -0.7071
vn 0.7071 0.7071 -0.0000
vn -0.0000 -0.9314 -0.3640
vn 0.6450 -0.7445 -0.1726
vn 0.1504 -0.7328 0.6636
vn -0.5772 0.7838 0.2293
vn -0.1522 -0.7341 -0.6618
vn -0.0000 -0.9314 0.3640
vn -0.3907 0.9205 -0.0000
vn 0.3881 0.9216 -0.0000
vn 0.3470 -0.9379 -0.0000
vn -0.3470 -0.9379 -0.0000
vn -0.0000 -0.1085 0.9941
vn 0.9843 -0.1764 -0.0000
vn 0.0030 1.0000 -0.0000
vn 0.5772 0.7838 0.2293
vn 0.0497 0.9885 0.1429
vn -0.0945 0.9955 -0.0000
vn 0.0498 0.9882 -0.1446
vn 0.0497 0.9885 -0.1429
vn 0.0537 0.9863 -0.1562
vn -0.0946 0.9955 -0.0000
vn 0.0498 0.9882 0.1446
vn 0.0537 0.9863 0.1562
vn 0.0066 0.9928 -0.1193
vn 0.0041 0.9937 -0.1122
vn -0.0002 0.9943 -0.1070
vn -0.0031 0.9987 -0.0501
vn 0.1546 0.9878 -0.0187
vn 0.1306 0.9914 0.0004
vn 0.1617 0.9863 -0.0332
vn 0.1569 0.9873 -0.0258
vn -0.6450 -0.7445 -0.1726
vn 0.6411 -0.7461 0.1795
vn 0.3915 0.9202 -0.0000
vn -0.0000 0.9161 -0.4010
vn -0.3915 0.9202 -0.0000
vn 0.0238 0.9996 -0.0151
vn -0.0152 0.9994 0.0315
vn -0.0154 0.9994 0.0316
vn -0.0157 0.9994 0.0320
vn 0.0237 0.9996 -0.0149
vn 0.0241 0.9996 -0.0154
vn -0.0066 0.9928 0.1193
vn -0.0041 0.9937 0.1122
vn 0.0002 0.9943 0.1070
vn 0.0031 0.9987 0.0501
vn -0.1546 0.9878 0.0187
vn -0.1306 0.9914 -0.0004
vn -0.1617 0.9863 0.0332
vn -0.1569 0.9873 0.0258
vn 0.5724 0.7847 -0.2379
vn -0.0007 0.9136 0.4066
vn -0.9843 -0.1764 -0.0000
vn -0.0000 -0.1085 -0.9941
vn -0.0007 0.9136 -0.4066
vn -0.0237 0.9996 0.0149
vn -0.0241 0.9996 0.0154
vn -0.0238 0.9996 0.0151
vn 0.0152 0.9994 -0.0315
vn 0.0154 0.9994 -0.0316
vn 0.0157 0.9994 -0.0320
vn 0.1522 -0.7341 -0.6618
vn -0.2000 0.7787 -0.5947
vn -0.1504 -0.7328 0.6636
vn 0.2010 0.7831 0.5885
vn -0.5724 0.7847 -0.2379
vn 0.2000 0.7787 -0.5947
vn -0.2010 0.7831 0.5885
vt 0.439162 0.832533
vt 0.245490 0.832679
vt 0.498656 0.949541
vt 0.686532 0.949411
vt 0.698767 0.716801
vt 0.177006 0.404743
vt 0.177006 0.798493
vt 0.684553 0.949541
vt 0.439162 0.832533
vt 0.438011 0.832679
vt 0.500754 0.949411
vt 0.176248 0.393892
vt 0.317441 0.716801
vt 0.177006 0.786070
vt 0.245346 0.832533
vt 0.245490 0.832679
vt 0.684434 0.949541
vt 0.498311 0.952407
vt 0.177227 0.793132
vt 0.698767 0.322363
vt 0.177006 0.404054
vt 0.498775 0.949541
vt 0.245346 0.832533
vt 0.438011 0.832679
vt 0.675140 0.952407
vt 0.176248 0.788330
vt 0.177227 0.411805
vt 0.317441 0.322363
vt 0.439162 0.801770
vt 0.438011 0.802121
vt 0.683133 0.792912
vt 0.271789 0.490967
vt 0.271789 0.706045
vt 0.694684 0.781030
vt 0.245346 0.801770
vt 0.438011 0.802121
vt 0.497355 0.792912
vt 0.271032 0.486339
vt 0.271789 0.699846
vt 0.485804 0.781030
vt 0.439162 0.801770
vt 0.245490 0.802121
vt 0.683133 0.978690
vt 0.272011 0.706908
vt 0.271789 0.496502
vt 0.694684 0.990573
vt 0.245346 0.801770
vt 0.245490 0.802121
vt 0.497355 0.978690
vt 0.271032 0.695883
vt 0.272011 0.498029
vt 0.485804 0.990573
vt 0.492062 0.959525
vt 0.681530 0.961910
vt 0.691148 0.959525
vt 0.491921 0.961910
vt 0.491943 0.959525
vt 0.693245 0.959395
vt 0.691266 0.959525
vt 0.494041 0.959395
vt 0.492062 0.964840
vt 0.613064 0.816837
vt 0.681530 0.966970
vt 0.613064 0.816837
vt 0.613064 0.816837
vt 0.691148 0.964840
vt 0.491921 0.966970
vt 0.613064 0.816837
vt 0.613064 0.816837
vt 0.491943 0.964840
vt 0.693245 0.964710
vt 0.613064 0.816837
vt 0.613064 0.816837
vt 0.691266 0.964840
vt 0.494041 0.964710
vt 0.613064 0.816837
vt 0.613064 0.816837
vt 0.492810 0.983047
vt 0.497479 0.978379
vt 0.613064 0.816837
vt 0.687346 0.978379
vt 0.613064 0.816837
vt 0.692015 0.983047
vt 0.613064 0.816837
vt 0.687346 0.788511
vt 0.613064 0.816837
vt 0.692015 0.783843
vt 0.613064 0.816837
vt 0.497479 0.788511
vt 0.613064 0.816837
vt 0.613064 0.816837
vt 0.492810 0.783843
vt 0.582057 0.906108
vt 0.461062 0.310425
vt 0.550723 0.310470
vt 0.603036 0.906108
vt 0.548628 0.310425
vt 0.550723 0.310470
vt 0.603036 0.867492
vt 0.548628 0.310425
vt 0.459112 0.310470
vt 0.461062 0.310425
vt 0.582057 0.867492
vt 0.459112 0.310470
vt 0.613064 0.816837
vt 0.497353 0.979693
vt 0.687740 0.979693
vt 0.613064 0.816837
vt 0.687740 0.793695
vt 0.613064 0.816837
vt 0.613064 0.816837
vt 0.497353 0.793695
vt 0.514651 0.493158
vt 0.496002 0.482793
vt 0.514651 0.493158
vt 0.513688 0.482793
vt 0.495183 0.493158
vt 0.513688 0.482793
vt 0.495183 0.493158
vt 0.496002 0.482793
vt 0.539080 0.425225
vt 0.480421 0.418698
vt 0.470755 0.425225
vt 0.480421 0.418698
vt 0.495183 0.427677
vt 0.513688 0.421011
vt 0.529269 0.418698
vt 0.539080 0.425225
vt 0.436048 0.512380
vt 0.406978 0.515287
vt 0.436048 0.317223
vt 0.406978 0.320129
vt 0.653996 0.395403
vt 0.353734 0.400536
vt 0.656658 0.302047
vt 0.641472 0.512380
vt 0.612402 0.515287
vt 0.355694 0.395403
vt 0.656101 0.400536
vt 0.420862 0.527556
vt 0.355694 0.395403
vt 0.353734 0.400536
vt 0.420862 0.302047
vt 0.653996 0.395403
vt 0.656101 0.400536
vt 0.656658 0.527556
vt 0.641472 0.317223
vt 0.612402 0.320129
vt 0.470755 0.425225
vt 0.529269 0.418698
vt 0.495183 0.427677
vt 0.496002 0.421011
vt 0.514651 0.427677
vt 0.496002 0.421011
vt 0.514651 0.427677
vt 0.513688 0.421011
vt 0.556613 0.373131
vt 0.573085 0.400262
vt 0.485674 0.337845
vt 0.518603 0.336253
vt 0.537038 0.430488
vt 0.479240 0.489417
vt 0.462767 0.462286
vt 0.491087 0.336253
vt 0.524160 0.337845
vt 0.515288 0.459192
vt 0.556613 0.462286
vt 0.573085 0.489417
vt 0.518603 0.336253
vt 0.524160 0.337845
vt 0.537038 0.459192
vt 0.462767 0.373131
vt 0.479240 0.400262
vt 0.485674 0.337845
vt 0.491087 0.336253
vt 0.515288 0.430488
vt 0.522619 0.506518
vt 0.522619 0.506518
vt 0.487199 0.506518
vt 0.487199 0.506518
vt 0.505136 0.493158
vt 0.513688 0.482793
vt 0.505136 0.493158
vt 0.496002 0.482793
vt 0.505136 0.427677
vt 0.513688 0.421011
vt 0.505136 0.427677
vt 0.496002 0.421011
vt 0.505344 0.506518
vt 0.505344 0.506518
vt 0.504845 0.482793
vt 0.504845 0.421011
vt 0.504845 0.482793
vt 0.481364 0.506518
vt 0.504845 0.421011
vt 0.528377 0.506518
vt 0.504845 0.495398
vt 0.478208 0.506518
vt 0.486584 0.495398
vt 0.484817 0.506518
vt 0.478880 0.495398
vt 0.505369 0.506518
vt 0.504845 0.495398
vt 0.531529 0.506518
vt 0.523106 0.495398
vt 0.525018 0.506518
vt 0.530810 0.495398
vt 0.505369 0.506518
vt 0.523106 0.495398
vt 0.484817 0.506518
vt 0.486584 0.495398
vt 0.525018 0.506518
vt 0.544692 0.459695
vt 0.501677 0.459476
vt 0.505248 0.500508
vt 0.505248 0.500508
vt 0.587707 0.459476
vt 0.544692 0.417020
vt 0.489361 0.500508
vt 0.544692 0.500256
vt 0.520508 0.500508
vt 0.514441 0.427350
vt 0.493226 0.500508
vt 0.574997 0.490062
vt 0.516693 0.500508
vt 0.574944 0.427350
vt 0.493226 0.500508
vt 0.514388 0.490062
vt 0.516693 0.500508
s 0
f 4/12/1 12/38/1 16/50/1 8/26/1
f 8/27/2 16/51/2 14/44/2 6/19/2
f 7/22/3 3/8/3 20/59/3 17/53/3
f 6/20/4 2/5/4 4/13/4 8/28/4
f 13/41/5 15/47/5 5/15/5 1/1/5
f 2/6/6 10/32/6 12/39/6 4/14/6
f 11/37/7 15/49/7 16/52/7 12/40/7
f 77/182/8 46/116/8 93/205/8 94/207/8
f 37/93/9 38/96/9 39/99/9 40/103/9 44/112/9 43/109/9 42/107/9 41/106/9
f 51/125/5 79/185/5 77/181/5 47/117/5
f 6/21/10 14/45/10 10/33/10 2/7/10
f 11/35/11 9/29/11 3/9/11 7/23/11
f 15/48/12 11/36/12 7/24/12 5/16/12
f 9/30/13 13/42/13 1/2/13 3/10/13
f 19/57/5 18/55/5 24/66/5 26/70/5
f 1/3/14 5/17/14 18/55/14 19/57/14
f 5/18/15 7/25/15 17/54/15 18/56/15
f 3/11/16 1/4/16 19/58/16 20/60/16
f 17/53/11 20/59/11 28/74/11 21/61/11
f 20/60/13 19/58/13 26/71/13 28/75/13
f 27/73/11 25/69/13 43/110/11 44/111/13
f 24/68/11 21/62/13 29/77/11 32/84/13
f 25/69/11 27/73/13 35/90/11 33/86/13
f 28/76/11 26/72/13 34/88/11 36/91/13
f 21/62/17 28/76/17 36/91/17 29/77/17
f 18/56/12 17/54/12 21/63/12 24/67/12
f 30/79/18 31/81/18 32/83/18 29/78/18
f 31/81/19 33/85/19 34/87/19 32/83/19
f 33/85/20 35/89/20 36/92/20 34/87/20
f 35/89/21 30/79/21 29/78/21 36/92/21
f 22/64/11 23/65/13 31/82/11 30/80/13
f 27/73/17 22/64/17 30/80/17 35/90/17
f 26/72/17 24/68/17 32/84/17 34/88/17
f 23/65/17 25/69/17 33/86/17 31/82/17
f 40/102/22 39/100/22 55/133/22 58/141/22
f 23/65/11 22/64/13 41/105/11 42/108/13
f 22/64/17 27/73/17 44/111/17 41/105/17
f 25/69/17 23/65/17 42/108/17 43/110/17
f 78/184/23 48/120/23 90/199/23 91/201/23
f 83/191/24 45/114/24 96/211/24 92/203/24
f 81/189/25 76/180/25 102/223/25 98/215/25
f 40/103/9 37/93/9 41/106/9 44/112/9
f 85/193/26 47/118/26 95/209/26 89/197/26
f 84/192/13 51/126/13 47/118/13 85/193/13
f 38/97/27 37/94/27 57/138/27 59/144/27
f 53/130/28 54/132/28 71/172/28 67/163/28
f 60/148/29 56/137/29 69/167/29 65/157/29
f 58/142/30 57/139/30 37/95/30 40/104/30
f 78/183/11 45/113/11 63/153/11 80/187/11
f 79/185/5 64/155/5 46/115/5 77/181/5
f 87/195/12 63/154/12 45/114/12 83/191/12
f 39/101/31 38/98/31 59/145/31 55/134/31
f 49/122/32 52/127/32 70/169/32 68/164/32
f 50/123/33 49/121/33 68/165/33 72/174/33
f 54/131/34 53/129/34 57/140/34 58/143/34
f 48/119/11 78/183/11 80/187/11 62/151/11
f 75/179/35 82/190/35 99/216/35 104/227/35
f 53/129/36 56/136/37 60/147/38 54/131/39 58/143/40 55/135/41 59/146/42 57/140/43
f 50/124/44 61/150/45 51/126/46 84/192/47 62/152/48 80/188/49 63/154/50 49/122/51
f 47/118/52 77/182/52 94/207/52 95/209/52
f 45/114/53 78/184/53 91/201/53 96/211/53
f 9/31/54 11/37/54 12/40/54 10/34/55 14/46/56 16/52/56 15/49/56 13/43/55
f 72/176/57 68/166/58 70/171/59 69/168/60 67/162/61 71/173/62
f 64/156/12 87/195/12 83/191/12 46/116/12
f 52/127/63 49/122/64 63/154/65 87/195/66 64/156/67 79/186/68 51/126/69 61/150/70
f 82/190/71 74/178/71 103/225/71 99/216/71
f 54/132/72 60/148/72 65/157/72 71/172/72
f 52/128/73 61/149/73 66/159/73 70/170/73
f 61/150/74 50/124/74 72/175/74 66/160/74
f 56/137/75 53/130/75 67/163/75 69/167/75
f 65/158/76 69/168/77 70/171/78 66/161/79 72/176/80 71/173/81
f 62/152/13 84/192/13 85/193/13 48/120/13
f 48/120/82 85/193/82 89/197/82 90/199/82
f 88/196/83 73/177/83 105/229/83 101/221/83
f 46/116/84 83/191/84 92/203/84 93/205/84
f 86/194/9 76/180/9 90/200/9 89/198/9
f 76/180/9 81/189/9 91/202/9 90/200/9
f 88/196/9 74/178/9 93/206/9 92/204/9
f 82/190/9 75/179/9 95/210/9 94/208/9
f 81/189/9 73/177/9 96/212/9 91/202/9
f 74/178/9 82/190/9 94/208/9 93/206/9
f 75/179/9 86/194/9 89/198/9 95/210/9
f 73/177/9 88/196/9 92/204/9 96/212/9
f 97/213/9 99/217/9 103/224/9 101/220/9
f 100/218/9 104/226/9 99/217/9 97/213/9
f 102/222/9 100/218/9 97/213/9 98/214/9
f 98/214/9 97/213/9 101/220/9 105/228/9
f 86/194/85 75/179/85 104/227/85 100/219/85
f 73/177/86 81/189/86 98/215/86 105/229/86
f 74/178/87 88/196/87 101/221/87 103/225/87
f 76/180/88 86/194/88 100/219/88 102/223/88
