# Blender 3.4.1
# www.blender.org
o Cube
v -0.450000 6.080750 0.400000
v -0.500000 5.198926 0.400000
v -0.450000 6.080750 -0.400000
v -0.500000 5.198926 -0.400000
v 0.450000 6.080750 0.400000
v 0.500000 5.198926 0.400000
v 0.450000 6.080750 -0.400000
v 0.500000 5.198926 -0.400000
v -0.500000 4.948926 1.300000
v 0.500000 4.948926 1.300000
v -0.450000 5.880750 1.300000
v 0.450000 5.880750 1.300000
v 0.500000 4.948926 -1.300000
v 0.450000 5.880750 -1.300000
v -0.450000 5.880750 -1.300000
v -0.500000 4.948926 -1.300000
v -0.500000 4.561853 2.110000
v 0.500000 4.561853 2.110000
v -0.450000 5.461174 2.210000
v 0.450000 5.461174 2.210000
v 0.500000 4.561853 -2.110000
v 0.450000 5.461174 -2.210000
v -0.450000 5.461174 -2.210000
v -0.500000 4.561853 -2.110000
v -0.500000 4.511173 2.232154
v 0.500000 4.511173 2.232154
v -0.450000 4.730547 2.850000
v 0.450000 4.730547 2.850000
v 0.500000 4.513212 -2.241984
v 0.450000 4.730547 -2.850000
v -0.450000 4.730547 -2.850000
v -0.500000 4.513212 -2.241984
v -0.500000 0.002133 2.250000
v 0.500000 0.002133 2.250000
v 0.500000 0.002133 -2.250000
v -0.500000 0.002133 -2.250000
v -0.500000 0.002133 2.850000
v -0.500000 0.002133 2.250000
v 0.500000 0.002133 2.850000
v 0.500000 0.002133 2.250000
v 0.500000 -0.001945 -2.850000
v -0.500000 -0.001945 -2.850000
v 0.500000 5.198926 0.000000
v 0.000000 5.198926 0.400000
v -0.500000 5.698926 0.400000
v 0.500000 5.698926 -0.400000
v -0.500000 5.698926 -0.400000
v 0.500000 5.698926 0.400000
v 0.000000 6.252058 -0.400000
v -0.450000 6.080750 0.000000
v 0.000000 5.198926 -0.400000
v 0.450000 6.080750 0.000000
v 0.000000 6.252058 0.400000
v -0.500000 5.198926 0.000000
v 0.000000 4.948926 1.300000
v -0.500000 5.448926 1.300000
v 0.500000 5.448926 1.300000
v 0.000000 6.002058 1.300000
v -0.500000 5.073926 0.850000
v -0.450000 5.980750 0.850000
v 0.450000 5.980750 0.850000
v 0.500000 5.073926 0.850000
v 0.500000 5.448926 -1.300000
v -0.500000 5.448926 -1.300000
v 0.000000 6.002058 -1.300000
v 0.000000 4.948926 -1.300000
v 0.500000 5.073926 -0.850000
v 0.450000 5.980750 -0.850000
v -0.500000 5.073926 -0.850000
v -0.450000 5.980750 -0.850000
v 0.000000 4.561853 2.110000
v -0.500000 5.030389 2.160000
v 0.500000 5.030389 2.160000
v 0.000000 5.552058 2.210000
v 0.500000 5.030389 -2.160000
v -0.500000 5.030389 -2.160000
v 0.000000 5.552058 -2.210000
v 0.000000 4.561853 -2.110000
v 0.450000 5.700750 -1.755000
v -0.450000 5.700750 -1.755000
v 0.500000 4.755390 -1.705000
v 0.450000 5.700750 1.755000
v 0.500000 4.755390 1.705000
v -0.500000 4.755390 -1.705000
v -0.500000 4.755390 1.705000
v -0.450000 5.700750 1.755000
v 0.000000 0.002133 2.200000
v -0.500000 4.511173 2.566077
v 0.500000 4.511173 2.566077
v 0.000000 4.711173 2.900000
v 0.500000 4.512192 -2.570992
v -0.500000 4.512192 -2.570992
v 0.000000 4.711173 -2.900000
v 0.000000 0.002133 -2.200000
v -0.500000 4.536513 2.171077
v -0.450000 5.125648 2.555000
v 0.450000 5.125648 -2.555000
v -0.450000 5.125648 -2.555000
v 0.500000 4.537532 -2.175992
v 0.450000 5.125648 2.555000
v 0.500000 4.536513 2.171077
v -0.500000 4.537532 -2.175992
v -0.500000 0.002133 2.572726
v 0.500000 0.002133 2.572726
v 0.000000 0.002133 2.900000
v 0.500000 0.000094 -2.564343
v -0.500000 0.000094 -2.564343
v 0.000000 -0.001945 -2.900000
v -0.500000 0.002133 2.247725
v 0.500000 0.002133 2.247725
v 0.500000 2.286862 2.180000
v 0.500000 2.259483 -2.850000
v -0.500000 2.286862 2.180000
v -0.500000 2.261522 2.850000
v -0.500000 2.286862 -2.180000
v 0.500000 2.286862 -2.180000
v -0.500000 2.259484 -2.850000
v 0.500000 2.261523 2.850000
v 0.000000 2.261523 2.900000
v 0.000000 2.259484 -2.900000
v 0.000000 2.286862 -2.150000
v 0.000000 5.161173 2.600000
v -0.500000 4.771291 -2.365496
v 0.000000 2.286862 2.150000
v 0.500000 4.770781 2.363039
v 0.500000 4.771291 -2.365496
v -0.500000 5.239658 1.730000
v 0.000000 5.811173 1.755000
v -0.500000 5.239658 -1.730000
v 0.000000 4.755390 1.705000
v 0.000000 4.755390 -1.705000
v 0.500000 5.239658 1.730000
v -0.500000 4.770781 2.363039
v 0.000000 5.161173 -2.600000
v -0.500000 5.573926 -0.850000
v 0.000000 6.161173 -0.850000
v 0.000000 5.073926 -0.850000
v 0.000000 5.811173 -1.755000
v 0.000000 6.161173 0.850000
v 0.000000 5.073926 0.850000
v 0.500000 5.573926 0.850000
v 0.500000 5.239658 -1.730000
v -0.500000 5.573926 0.850000
v -0.500000 5.698926 0.000000
v 0.000000 5.198926 0.000000
v 0.500000 5.698926 0.000000
v 0.500000 5.573926 -0.850000
v 0.000000 6.261173 0.000000
vn 0.3640 0.9313 -0.0106
vn 1.0000 -0.0000 -0.0000
vn 0.9915 0.1298 -0.0000
vn -0.0000 -1.0000 -0.0000
vn -0.9915 0.1298 -0.0000
vn -1.0000 -0.0000 -0.0000
vn 0.9925 0.1183 0.0296
vn -0.0000 -0.9635 -0.2676
vn -0.3066 0.9147 0.2633
vn 0.1925 0.8606 -0.4716
vn -0.0000 -0.9635 0.2676
vn 0.3066 0.9147 -0.2633
vn -0.9925 0.1183 -0.0296
vn 0.0962 0.5730 -0.8139
vn 0.9928 0.1068 0.0541
vn -0.0000 -0.9023 0.4312
vn -0.0000 -0.9023 -0.4312
vn -0.9928 0.1068 -0.0541
vn -0.1925 0.8606 0.4716
vn 0.9998 0.0023 0.0184
vn 0.9907 0.0826 0.1085
vn 0.0797 -0.0262 -0.9965
vn -0.9905 0.0836 -0.1092
vn -0.0962 0.5730 0.8139
vn -0.9998 0.0023 0.0184
vn -0.0797 -0.0262 0.9965
vn 0.9998 0.0023 -0.0184
vn 0.0995 -0.0000 -0.9950
vn -0.0995 -0.0000 0.9950
vn 0.0995 -0.0000 0.9950
vn 0.1047 0.0011 0.9945
vn -0.1047 0.0011 0.9945
vn -0.0995 -0.0000 -0.9950
vn -0.1047 0.0011 -0.9945
vn 0.1047 0.0011 -0.9945
vn 0.0797 -0.0262 0.9965
vn 0.0300 -0.0242 0.9993
vn -0.0300 -0.0242 0.9993
vn 0.0962 0.5730 0.8139
vn 0.1338 0.7049 0.6966
vn -0.1338 0.7049 0.6966
vn -0.9902 0.0949 -0.1025
vn -0.0797 -0.0262 -0.9965
vn -0.0300 -0.0242 -0.9993
vn 0.0300 -0.0242 -0.9993
vn 0.9902 0.0945 0.1026
vn 0.9905 0.0836 -0.1092
vn 0.9902 0.0949 -0.1025
vn -0.9928 0.1068 0.0541
vn -0.9928 0.1098 0.0483
vn 0.1925 0.8606 0.4716
vn 0.2319 0.9008 0.3671
vn -0.2319 0.9008 0.3671
vn -0.9928 0.1098 -0.0483
vn 0.9928 0.1098 0.0483
vn -0.9907 0.0826 0.1085
vn -0.9902 0.0945 0.1026
vn -0.0962 0.5730 -0.8139
vn -0.1338 0.7049 -0.6966
vn 0.1338 0.7049 -0.6966
vn -0.9916 0.1257 -0.0314
vn -0.3066 0.9147 -0.2633
vn -0.3571 0.9137 -0.1938
vn 0.3571 0.9137 -0.1938
vn -0.1925 0.8606 -0.4716
vn -0.2319 0.9008 -0.3671
vn 0.2319 0.9008 -0.3671
vn 0.3066 0.9147 0.2633
vn 0.3571 0.9137 0.1938
vn -0.3571 0.9137 0.1938
vn 0.9916 0.1257 0.0314
vn 0.9928 0.1068 -0.0541
vn 0.9928 0.1098 -0.0483
vn -0.9925 0.1183 0.0296
vn -0.9916 0.1257 0.0314
vn 0.9925 0.1183 -0.0296
vn 0.9916 0.1257 -0.0314
vn -0.3640 0.9313 -0.0106
vn -0.3640 0.9313 0.0106
vn 0.3640 0.9313 0.0106
vn -0.0000 -1.0000 0.0063
vn -0.9998 0.0023 -0.0184
vt 0.770371 0.523008
vt 0.101652 0.315746
vt 0.770371 0.446983
vt 0.108359 0.172149
vt 0.701511 0.523008
vt 0.100589 0.251709
vt 0.108359 0.241009
vt 0.701511 0.446983
vt 0.700746 0.523007
vt 0.024638 0.313808
vt 0.022284 0.172149
vt 0.700746 0.446982
vt 0.023575 0.249771
vt 0.769606 0.523007
vt 0.022284 0.241009
vt 0.769605 0.446982
vt 0.847839 0.425497
vt 0.108359 0.094682
vt 0.022284 0.094682
vt 0.623278 0.425497
vt 0.104690 0.381474
vt 0.847838 0.505819
vt 0.623278 0.505818
vt 0.027676 0.379536
vt 0.022284 0.318477
vt 0.847073 0.425496
vt 0.024220 0.171414
vt 0.847073 0.505818
vt 0.624043 0.505819
vt 0.101234 0.173352
vt 0.108359 0.318477
vt 0.624043 0.425497
vt 0.100409 0.394120
vt 0.108359 0.024961
vt 0.917559 0.392231
vt 0.022284 0.024961
vt 0.014334 0.394120
vt 0.553557 0.392230
vt 0.109762 0.441070
vt 0.105209 0.017158
vt 0.926167 0.469759
vt 0.027741 0.017158
vt 0.544949 0.469759
vt 0.032748 0.439132
vt 0.102225 0.394120
vt 0.916794 0.392230
vt 0.022284 0.388197
vt 0.026873 0.085325
vt 0.925401 0.469758
vt 0.545715 0.469759
vt 0.103887 0.087263
vt 0.108359 0.388197
vt 0.016150 0.394120
vt 0.554323 0.392230
vt 0.928074 0.387875
vt 0.543043 0.387875
vt 0.105209 0.079361
vt 0.101303 0.003189
vt 0.981255 0.406966
vt 0.489862 0.406966
vt 0.023835 0.003189
vt 0.027741 0.079361
vt 0.928154 0.388049
vt 0.032748 0.011028
vt 0.022269 0.402982
vt 0.980489 0.406965
vt 0.099737 0.402982
vt 0.109762 0.012966
vt 0.490627 0.406966
vt 0.542963 0.388050
vt 0.292920 0.140195
vt 0.929610 0.000351
vt 0.100409 0.001523
vt 0.292920 0.226270
vt 0.541507 0.000350
vt 0.014334 0.001523
vt 0.928844 0.000350
vt 0.102225 0.001523
vt 0.181022 0.226270
vt 0.016150 0.001523
vt 0.181022 0.140195
vt 0.542272 0.000351
vt 0.241275 0.140195
vt 0.981255 0.000351
vt 0.105606 0.410156
vt 0.292920 0.140195
vt 0.929610 0.000351
vt 0.241275 0.226270
vt 0.489862 0.000351
vt 0.019531 0.410156
vt 0.292920 0.226270
vt 0.541507 0.000350
vt 0.980489 0.000000
vt 0.017965 -0.004336
vt 0.232667 0.226270
vt 0.104040 -0.004336
vt 0.232667 0.140195
vt 0.490627 0.000000
vt 0.022284 0.206579
vt 0.735175 0.446982
vt 0.065322 0.172149
vt 0.770371 0.489955
vt 0.769605 0.489955
vt 0.701511 0.489955
vt 0.700746 0.489955
vt 0.060505 0.256148
vt 0.735941 0.523008
vt 0.101121 0.283727
vt 0.065322 0.241009
vt 0.735176 0.523007
vt 0.024107 0.281789
vt 0.061568 0.320186
vt 0.735941 0.446983
vt 0.108359 0.206579
vt 0.065322 0.094682
vt 0.847839 0.468469
vt 0.623278 0.468469
vt 0.065066 0.384335
vt 0.108359 0.133416
vt 0.809105 0.436240
vt 0.103171 0.348610
vt 0.809105 0.514413
vt 0.026157 0.346672
vt 0.662012 0.514413
vt 0.022284 0.133416
vt 0.662012 0.436239
vt 0.847073 0.468469
vt 0.624044 0.468469
vt 0.061610 0.176213
vt 0.065322 0.318477
vt 0.022284 0.279743
vt 0.808339 0.436239
vt 0.023897 0.210592
vt 0.808339 0.514413
vt 0.662777 0.436240
vt 0.108359 0.279743
vt 0.662777 0.514413
vt 0.100911 0.212530
vt 0.057372 0.394120
vt 0.065322 0.024961
vt 0.921863 0.432498
vt 0.549253 0.432498
vt 0.066475 0.009336
vt 0.070419 0.442971
vt 0.921097 0.432498
vt 0.550019 0.432498
vt 0.064543 0.089163
vt 0.059187 0.394120
vt 0.065322 0.388197
vt 0.025272 0.129310
vt 0.886237 0.490349
vt 0.584879 0.490349
vt 0.102286 0.131248
vt 0.022284 0.353337
vt 0.881933 0.408863
vt 0.029938 0.410275
vt 0.584114 0.490349
vt 0.022284 0.059822
vt 0.588418 0.408863
vt 0.589183 0.408864
vt 0.108359 0.353337
vt 0.882699 0.408864
vt 0.108359 0.059822
vt 0.887002 0.490349
vt 0.106952 0.412212
vt 0.297224 0.183233
vt 0.057372 0.001577
vt 0.956816 0.387875
vt 0.514300 0.387875
vt 0.062569 0.004803
vt 0.066475 0.080975
vt 0.956473 0.387961
vt 0.514643 0.387962
vt 0.061003 0.401368
vt 0.071367 0.007383
vt 0.059187 0.001577
vt 0.176719 0.183233
vt 0.922817 0.390053
vt 0.105209 0.045669
vt 0.955863 0.440923
vt 0.955097 0.440922
vt 0.029503 0.047116
vt 0.516019 0.440922
vt 0.106517 0.049053
vt 0.922474 0.390140
vt 0.027741 0.045669
vt 0.515254 0.440923
vt 0.548300 0.390053
vt 0.548643 0.390140
vt 0.265141 0.140195
vt 0.957388 0.000351
vt 0.265141 0.226270
vt 0.513728 0.000351
vt 0.236971 0.183233
vt 0.062569 0.410103
vt 0.955901 0.000175
vt 0.208079 0.226270
vt 0.208079 0.140195
vt 0.515215 0.000175
vt 0.061003 -0.004283
vt 0.236971 0.183233
vt 0.293116 0.140195
vt 0.929414 0.000351
vt 0.293116 0.226270
vt 0.541703 0.000350
vt 0.547532 0.196709
vt 0.014334 0.198241
vt 0.980489 0.194355
vt 0.017965 0.190302
vt 0.923584 0.196709
vt 0.100409 0.198241
vt 0.981255 0.194531
vt 0.105606 0.215694
vt 0.016150 0.198241
vt 0.548297 0.196709
vt 0.922819 0.196709
vt 0.102225 0.198241
vt 0.104040 0.190302
vt 0.490627 0.194356
vt 0.489862 0.194531
vt 0.019531 0.215694
vt 0.062569 0.215641
vt 0.061003 0.190355
vt 0.059187 0.198273
vt 0.066475 0.042563
vt 0.532331 0.410230
vt 0.057372 0.198273
vt 0.531777 0.410187
vt 0.938785 0.410230
vt 0.884851 0.450484
vt 0.067428 0.414730
vt 0.587031 0.450483
vt 0.065322 0.059822
vt 0.065322 0.353337
vt 0.586266 0.450483
vt 0.939340 0.410187
vt 0.067623 0.045604
vt 0.662777 0.479212
vt 0.060743 0.217258
vt 0.065322 0.279743
vt 0.062763 0.133765
vt 0.063003 0.353337
vt 0.065322 0.133416
vt 0.662012 0.479212
vt 0.884085 0.450483
vt 0.809105 0.479212
vt 0.735941 0.489955
vt 0.065322 0.206579
vt 0.735175 0.489955
vt 0.808339 0.479212
vt 0.060953 0.288455
s 0
f 148/251/1 52/111/1 7/13/1 49/106/1
f 147/250/2 67/132/2 13/26/2 63/127/2
f 146/249/3 52/110/3 5/9/3 48/105/3
f 145/248/4 54/114/4 4/7/4 51/109/4
f 144/247/5 50/107/5 3/5/5 47/104/5
f 143/246/6 59/120/6 9/17/6 56/116/6
f 142/245/2 81/155/2 21/46/2 75/145/2
f 141/244/7 61/124/7 12/23/7 57/117/7
f 140/243/8 62/125/8 10/19/8 55/115/8
f 139/242/9 60/121/9 11/21/9 58/118/9
f 138/241/10 79/150/10 22/48/10 77/147/10
f 137/240/11 69/136/11 16/31/11 66/130/11
f 136/239/12 68/133/12 14/27/12 65/129/12
f 135/238/13 70/137/13 15/29/13 64/128/13
f 134/237/14 97/182/14 30/64/14 93/175/14
f 123/226/6 92/173/6 32/70/6 102/189/6 24/54/6 76/146/6
f 132/235/15 82/157/15 20/43/15 73/142/15
f 131/234/16 84/161/16 24/52/16 78/149/16
f 130/233/17 83/158/17 18/36/17 71/140/17
f 129/232/18 80/152/18 23/50/18 76/146/18
f 128/231/19 86/165/19 19/39/19 74/144/19
f 127/230/6 85/162/6 17/35/6 72/141/6
f 40/91/4 104/192/4 39/88/4 105/194/4 37/83/4 103/190/4 38/86/4 109/202/4 33/71/4 87/166/4 34/74/4 110/204/4
f 18/38/20 101/188/20 26/56/20 89/169/20 28/60/20 118/220/20 39/89/20 104/193/20 40/92/20 110/205/20 34/75/20 111/206/20
f 125/228/21 100/187/21 28/60/21 89/169/21
f 124/227/22 111/207/22 34/76/22 87/167/22
f 123/226/23 98/183/23 31/69/23 92/173/23
f 122/225/24 96/179/24 27/57/24 90/171/24
f 27/59/25 88/168/25 25/55/25 95/178/25 17/35/25 113/210/25 33/72/25 109/203/25 38/87/25 103/191/25 37/84/25 114/212/25
f 121/224/26 115/214/26 36/80/26 94/176/26
f 30/66/27 91/172/27 29/63/27 99/185/27 21/46/27 116/216/27 35/77/27 106/196/27 41/93/27 112/208/27
f 120/223/28 112/209/28 41/94/28 108/200/28
f 119/222/29 114/213/29 37/85/29 105/195/29
f 118/221/30 119/222/30 105/195/30 39/90/30
f 28/61/31 90/170/31 119/222/31 118/221/31
f 90/170/32 27/58/32 114/213/32 119/222/32
f 117/218/33 120/223/33 108/200/33 42/96/33
f 31/67/34 93/174/34 120/223/34 117/218/34
f 93/174/35 30/65/35 112/209/35 120/223/35
f 116/217/36 121/224/36 94/176/36 35/78/36
f 21/45/37 78/148/37 121/224/37 116/217/37
f 78/148/38 24/53/38 115/214/38 121/224/38
f 100/186/39 122/225/39 90/171/39 28/62/39
f 20/42/40 74/143/40 122/225/40 100/186/40
f 74/143/41 19/40/41 96/179/41 122/225/41
f 125/228/2 89/169/2 26/56/2 101/188/2 18/38/2 73/142/2
f 76/146/42 23/50/42 98/183/42 123/226/42
f 113/211/43 124/227/43 87/167/43 33/73/43
f 17/33/44 71/139/44 124/227/44 113/211/44
f 71/139/45 18/37/45 111/207/45 124/227/45
f 99/185/2 29/63/2 91/172/2 126/229/2 75/145/2 21/46/2
f 73/142/46 20/43/46 100/187/46 125/228/46
f 97/181/47 126/229/47 91/172/47 30/66/47
f 22/49/48 75/145/48 126/229/48 97/181/48
f 86/164/49 127/230/49 72/141/49 19/41/49
f 11/22/50 56/116/50 127/230/50 86/164/50
f 56/116/6 9/17/6 85/162/6 127/230/6
f 82/156/51 128/231/51 74/144/51 20/44/51
f 12/24/52 58/118/52 128/231/52 82/156/52
f 58/118/53 11/21/53 86/165/53 128/231/53
f 84/160/6 129/232/6 76/146/6 24/54/6
f 16/32/6 64/128/6 129/232/6 84/160/6
f 64/128/54 15/29/54 80/152/54 129/232/54
f 85/163/17 130/233/17 71/140/17 17/34/17
f 9/18/17 55/115/17 130/233/17 85/163/17
f 55/115/17 10/19/17 83/158/17 130/233/17
f 81/154/16 131/234/16 78/149/16 21/47/16
f 13/25/16 66/130/16 131/234/16 81/154/16
f 66/130/16 16/31/16 84/161/16 131/234/16
f 83/159/2 132/235/2 73/142/2 18/38/2
f 10/20/2 57/117/2 132/235/2 83/159/2
f 57/117/55 12/23/55 82/157/55 132/235/55
f 96/180/56 133/236/56 88/168/56 27/59/56
f 19/41/57 72/141/57 133/236/57 96/180/57
f 98/184/58 134/237/58 93/175/58 31/68/58
f 23/51/59 77/147/59 134/237/59 98/184/59
f 77/147/60 22/48/60 97/182/60 134/237/60
f 69/135/6 135/238/6 64/128/6 16/32/6
f 4/8/6 47/104/6 135/238/6 69/135/6
f 47/104/61 3/5/61 70/137/61 135/238/61
f 70/138/62 136/239/62 65/129/62 15/30/62
f 3/6/63 49/106/63 136/239/63 70/138/63
f 49/106/64 7/13/64 68/133/64 136/239/64
f 67/131/11 137/240/11 66/130/11 13/25/11
f 8/15/11 51/109/11 137/240/11 67/131/11
f 51/109/11 4/7/11 69/136/11 137/240/11
f 80/153/65 138/241/65 77/147/65 23/51/65
f 15/30/66 65/129/66 138/241/66 80/153/66
f 65/129/67 14/27/67 79/150/67 138/241/67
f 61/123/68 139/242/68 58/118/68 12/24/68
f 5/10/69 53/112/69 139/242/69 61/123/69
f 53/112/70 1/2/70 60/121/70 139/242/70
f 59/119/8 140/243/8 55/115/8 9/18/8
f 2/4/8 44/101/8 140/243/8 59/119/8
f 44/101/8 6/11/8 62/125/8 140/243/8
f 62/126/2 141/244/2 57/117/2 10/20/2
f 6/12/2 48/105/2 141/244/2 62/126/2
f 48/105/71 5/9/71 61/124/71 141/244/71
f 79/151/72 142/245/72 75/145/72 22/49/72
f 14/28/73 63/127/73 142/245/73 79/151/73
f 63/127/2 13/26/2 81/155/2 142/245/2
f 60/122/74 143/246/74 56/116/74 11/22/74
f 1/1/75 45/102/75 143/246/75 60/122/75
f 45/102/6 2/3/6 59/120/6 143/246/6
f 54/113/6 144/247/6 47/104/6 4/8/6
f 2/3/6 45/102/6 144/247/6 54/113/6
f 45/102/5 1/1/5 50/107/5 144/247/5
f 43/99/4 145/248/4 51/109/4 8/15/4
f 6/11/4 44/101/4 145/248/4 43/99/4
f 44/101/4 2/4/4 54/114/4 145/248/4
f 43/100/2 146/249/2 48/105/2 6/12/2
f 8/16/2 46/103/2 146/249/2 43/100/2
f 46/103/3 7/14/3 52/110/3 146/249/3
f 68/134/76 147/250/76 63/127/76 14/28/76
f 7/14/77 46/103/77 147/250/77 68/134/77
f 46/103/2 8/16/2 67/132/2 147/250/2
f 50/108/78 148/251/78 49/106/78 3/6/78
f 1/2/79 53/112/79 148/251/79 50/108/79
f 53/112/80 5/10/80 52/111/80 148/251/80
f 36/81/81 107/198/81 42/97/81 108/201/81 41/95/81 106/197/81 35/79/81 94/177/81
f 24/54/82 102/189/82 32/70/82 92/173/82 31/69/82 117/219/82 42/98/82 107/199/82 36/82/82 115/215/82
f 95/178/6 25/55/6 88/168/6 133/236/6 72/141/6 17/35/6
