# Blender 3.4.1
# www.blender.org
o Plane.007
v -0.370622 0.369429 0.124848
v -0.380426 0.369429 0.124848
v -0.250818 -0.000371 0.124848
v -0.500231 -0.000371 0.124848
v -0.375524 -0.000371 0.000141
v -0.375524 -0.000371 0.249554
v -0.375524 0.369429 0.119946
v -0.375524 0.369429 0.129750
v -0.370622 0.369429 0.374848
v -0.380426 0.369429 0.374848
v -0.250818 -0.000371 0.374848
v -0.500231 -0.000371 0.374848
v -0.375524 -0.000371 0.250141
v -0.375524 -0.000371 0.499554
v -0.375524 0.369429 0.369946
v -0.375524 0.369429 0.379750
v -0.120622 0.369429 0.374848
v -0.130426 0.369429 0.374848
v -0.000818 -0.000371 0.374848
v -0.250231 -0.000371 0.374848
v -0.125524 -0.000371 0.250141
v -0.125524 -0.000371 0.499554
v -0.125524 0.369429 0.369946
v -0.125524 0.369429 0.379750
v 0.129378 0.369429 0.374848
v 0.119574 0.369429 0.374848
v 0.249182 -0.000371 0.374848
v -0.000231 -0.000371 0.374848
v 0.124476 -0.000371 0.250141
v 0.124476 -0.000371 0.499554
v 0.124476 0.369429 0.369946
v 0.124476 0.369429 0.379750
v 0.379378 0.369429 0.374848
v 0.369574 0.369429 0.374848
v 0.499182 -0.000371 0.374848
v 0.249769 -0.000371 0.374848
v 0.374476 -0.000371 0.250141
v 0.374476 -0.000371 0.499554
v 0.374476 0.369429 0.369946
v 0.374476 0.369429 0.379750
v 0.379378 0.369429 0.124848
v 0.369574 0.369429 0.124848
v 0.499182 -0.000371 0.124848
v 0.249769 -0.000371 0.124848
v 0.374476 -0.000371 0.000141
v 0.374476 -0.000371 0.249554
v 0.374476 0.369429 0.119946
v 0.374476 0.369429 0.129750
v 0.129378 0.369429 0.124848
v 0.119574 0.369429 0.124848
v 0.249182 -0.000371 0.124848
v -0.000231 -0.000371 0.124848
v 0.124476 -0.000371 0.000141
v 0.124476 -0.000371 0.249554
v 0.124476 0.369429 0.119946
v 0.124476 0.369429 0.129750
v -0.120622 0.369429 0.124848
v -0.130426 0.369429 0.124848
v -0.000818 -0.000371 0.124848
v -0.250231 -0.000371 0.124848
v -0.125524 -0.000371 0.000141
v -0.125524 -0.000371 0.249554
v -0.125524 0.369429 0.119946
v -0.125524 0.369429 0.129750
v 0.379378 0.369429 -0.125152
v 0.369574 0.369429 -0.125152
v 0.499182 -0.000371 -0.125152
v 0.249769 -0.000371 -0.125152
v 0.374476 -0.000371 -0.249859
v 0.374476 -0.000371 -0.000446
v 0.374476 0.369429 -0.130054
v 0.374476 0.369429 -0.120250
v 0.129378 0.369429 -0.125152
v 0.119574 0.369429 -0.125152
v 0.249182 -0.000371 -0.125152
v -0.000231 -0.000371 -0.125152
v 0.124476 -0.000371 -0.249859
v 0.124476 -0.000371 -0.000446
v 0.124476 0.369429 -0.130054
v 0.124476 0.369429 -0.120250
v -0.120622 0.369429 -0.125152
v -0.130426 0.369429 -0.125152
v -0.000818 -0.000371 -0.125152
v -0.250231 -0.000371 -0.125152
v -0.125524 -0.000371 -0.249859
v -0.125524 -0.000371 -0.000446
v -0.125524 0.369429 -0.130054
v -0.125524 0.369429 -0.120250
v -0.370622 0.369429 -0.125152
v -0.380426 0.369429 -0.125152
v -0.250818 -0.000371 -0.125152
v -0.500231 -0.000371 -0.125152
v -0.375524 -0.000371 -0.249859
v -0.375524 -0.000371 -0.000446
v -0.375524 0.369429 -0.130054
v -0.375524 0.369429 -0.120250
v 0.379378 0.369429 -0.375152
v 0.369574 0.369429 -0.375152
v 0.499182 -0.000371 -0.375152
v 0.249769 -0.000371 -0.375152
v 0.374476 -0.000371 -0.499859
v 0.374476 -0.000371 -0.250446
v 0.374476 0.369429 -0.380054
v 0.374476 0.369429 -0.370250
v 0.129378 0.369429 -0.375152
v 0.119574 0.369429 -0.375152
v 0.249182 -0.000371 -0.375152
v -0.000231 -0.000371 -0.375152
v 0.124476 -0.000371 -0.499859
v 0.124476 -0.000371 -0.250446
v 0.124476 0.369429 -0.380054
v 0.124476 0.369429 -0.370250
v -0.120622 0.369429 -0.375152
v -0.130426 0.369429 -0.375152
v -0.000818 -0.000371 -0.375152
v -0.250231 -0.000371 -0.375152
v -0.125524 -0.000371 -0.499859
v -0.125524 -0.000371 -0.250446
v -0.125524 0.369429 -0.380054
v -0.125524 0.369429 -0.370250
v -0.500000 0.000000 0.500000
v 0.500000 0.000000 0.500000
v -0.500000 0.000000 -0.500000
v 0.500000 0.000000 -0.500000
v -0.370622 0.369429 -0.375152
v -0.380426 0.369429 -0.375152
v -0.250818 -0.000371 -0.375152
v -0.500231 -0.000371 -0.375152
v -0.375524 -0.000371 -0.499859
v -0.375524 -0.000371 -0.250446
v -0.375524 0.369429 -0.380054
v -0.375524 0.369429 -0.370250
vn -0.0000 -0.0000 1.0000
vn -1.0000 -0.0000 -0.0000
vn -0.0000 1.0000 -0.0000
vt 0.196205 0.994864
vt 0.190610 0.994864
vt 0.264563 0.697711
vt 0.122252 0.697710
vt 0.119766 0.698189
vt 0.262077 0.698189
vt 0.188124 0.995343
vt 0.193719 0.995343
vt 0.196205 0.990931
vt 0.190610 0.990931
vt 0.264563 0.693777
vt 0.122252 0.693777
vt 0.120813 0.696288
vt 0.263124 0.696288
vt 0.189171 0.993442
vt 0.194766 0.993442
vt 0.193523 0.993442
vt 0.187928 0.993442
vt 0.261881 0.696288
vt 0.119570 0.696288
vt 0.119766 0.694132
vt 0.262077 0.694132
vt 0.188125 0.991286
vt 0.193719 0.991286
vt 0.194962 0.995343
vt 0.189368 0.995343
vt 0.263320 0.698189
vt 0.121009 0.698189
vt 0.119766 0.695921
vt 0.262077 0.695921
vt 0.188125 0.993075
vt 0.193719 0.993075
vt 0.194137 0.990820
vt 0.188543 0.990820
vt 0.262495 0.693666
vt 0.120184 0.693666
vt 0.119766 0.693777
vt 0.262077 0.693777
vt 0.188125 0.990931
vt 0.193719 0.990931
vt 0.194655 0.993075
vt 0.189060 0.993075
vt 0.263013 0.695921
vt 0.120702 0.695921
vt 0.119766 0.697711
vt 0.262077 0.697711
vt 0.188124 0.994865
vt 0.193719 0.994865
vt 0.194962 0.990453
vt 0.189368 0.990453
vt 0.263320 0.693299
vt 0.121009 0.693299
vt 0.119766 0.693299
vt 0.262077 0.693299
vt 0.188124 0.990453
vt 0.193719 0.990453
vt 0.194655 0.991286
vt 0.189060 0.991286
vt 0.263013 0.694132
vt 0.120702 0.694132
vt 0.121734 0.696527
vt 0.264045 0.696527
vt 0.190093 0.993682
vt 0.195687 0.993682
vt 0.193830 0.993921
vt 0.188235 0.993921
vt 0.262188 0.696767
vt 0.119877 0.696767
vt 0.119570 0.696527
vt 0.261881 0.696527
vt 0.187928 0.993682
vt 0.193523 0.993682
vt 0.194766 0.992131
vt 0.189171 0.992131
vt 0.263124 0.694977
vt 0.120813 0.694977
vt 0.121009 0.695921
vt 0.263320 0.695921
vt 0.189368 0.993075
vt 0.194962 0.993075
vt 0.191861 0.991286
vt 0.186267 0.991286
vt 0.260220 0.694132
vt 0.117909 0.694132
vt 0.121009 0.693777
vt 0.263320 0.693777
vt 0.189368 0.990931
vt 0.194962 0.990931
vt 0.195380 0.993442
vt 0.189786 0.993442
vt 0.263738 0.696288
vt 0.121427 0.696288
vt 0.121009 0.697711
vt 0.263320 0.697711
vt 0.189368 0.994865
vt 0.194962 0.994865
vt 0.193523 0.990820
vt 0.187928 0.990820
vt 0.261881 0.693666
vt 0.119570 0.693666
vt 0.121427 0.693427
vt 0.263738 0.693427
vt 0.189786 0.990581
vt 0.195380 0.990581
vt 0.194766 0.995471
vt 0.189171 0.995471
vt 0.263124 0.698317
vt 0.120813 0.698317
vt 0.120184 0.696288
vt 0.262495 0.696288
vt 0.188543 0.993442
vt 0.194137 0.993442
vt 0.196205 0.990453
vt 0.190610 0.990453
vt 0.264563 0.693299
vt 0.122252 0.693299
vt 0.119459 0.695443
vt 0.261770 0.695443
vt 0.187817 0.992597
vt 0.193412 0.992597
vt 0.420103 0.990686
vt 0.420103 0.420103
vt 0.990686 0.990686
vt 0.990686 0.420103
vt 0.196205 0.995343
vt 0.190610 0.995343
vt 0.264563 0.698189
vt 0.122252 0.698189
vt 0.120702 0.695443
vt 0.263013 0.695443
vt 0.189060 0.992597
vt 0.194655 0.992597
s 0
f 1/1/1 2/2/1 4/4/1 3/3/1
f 5/5/2 6/6/2 8/8/2 7/7/2
f 9/9/1 10/10/1 12/12/1 11/11/1
f 13/13/2 14/14/2 16/16/2 15/15/2
f 17/17/1 18/18/1 20/20/1 19/19/1
f 21/21/2 22/22/2 24/24/2 23/23/2
f 25/25/1 26/26/1 28/28/1 27/27/1
f 29/29/2 30/30/2 32/32/2 31/31/2
f 33/33/1 34/34/1 36/36/1 35/35/1
f 37/37/2 38/38/2 40/40/2 39/39/2
f 41/41/1 42/42/1 44/44/1 43/43/1
f 45/45/2 46/46/2 48/48/2 47/47/2
f 49/49/1 50/50/1 52/52/1 51/51/1
f 53/53/2 54/54/2 56/56/2 55/55/2
f 57/57/1 58/58/1 60/60/1 59/59/1
f 61/61/2 62/62/2 64/64/2 63/63/2
f 65/65/1 66/66/1 68/68/1 67/67/1
f 69/69/2 70/70/2 72/72/2 71/71/2
f 73/73/1 74/74/1 76/76/1 75/75/1
f 77/77/2 78/78/2 80/80/2 79/79/2
f 81/81/1 82/82/1 84/84/1 83/83/1
f 85/85/2 86/86/2 88/88/2 87/87/2
f 89/89/1 90/90/1 92/92/1 91/91/1
f 93/93/2 94/94/2 96/96/2 95/95/2
f 97/97/1 98/98/1 100/100/1 99/99/1
f 101/101/2 102/102/2 104/104/2 103/103/2
f 105/105/1 106/106/1 108/108/1 107/107/1
f 109/109/2 110/110/2 112/112/2 111/111/2
f 113/113/1 114/114/1 116/116/1 115/115/1
f 117/117/2 118/118/2 120/120/2 119/119/2
f 124/124/3 123/123/3 121/121/3 122/122/3
f 125/125/1 126/126/1 128/128/1 127/127/1
f 129/129/2 130/130/2 132/132/2 131/131/2
