# Blender 3.4.1
# www.blender.org
mtllib doorway.mtl
o Cube
v 0.000000 4.474244 -1.440000
v 0.000000 0.000000 -1.440000
v 0.000000 4.474244 1.440000
v 0.000000 0.000000 1.440000
v -1.000000 4.923643 -2.000000
v -1.000000 0.000000 -2.000000
v -1.000000 4.923643 2.000000
v -1.000000 0.000000 2.000000
v 0.000000 4.923643 -2.000000
v 0.000000 0.000000 -2.000000
v 0.000000 4.923643 2.000000
v 0.000000 0.000000 2.000000
v -1.000000 0.000000 -1.440000
v -1.000000 0.000000 1.440000
v 0.000000 5.900000 0.000000
v -1.000000 5.900000 0.000000
v 0.000000 5.031447 0.000000
v -1.000000 5.619857 -1.000000
v 0.000000 5.619857 -1.000000
v 0.000000 4.928984 -0.720000
v 0.000000 5.619857 1.000000
v 0.000000 4.928984 0.720000
v -1.000000 5.619857 1.000000
v -0.300000 0.000000 1.440000
v -0.300000 4.474244 1.440000
v -0.300000 4.474244 -1.440000
v -0.300000 0.000000 -1.440000
v -0.300000 5.031447 0.000000
v -0.300000 4.928984 -0.720000
v -0.300000 4.928984 0.720000
vn -0.0000 0.8207 0.5714
vn -0.0000 -0.0000 1.0000
vn -0.0000 -0.0000 -1.0000
vn 1.0000 -0.0000 -0.0000
vn -0.0000 0.9629 -0.2698
vn -0.0000 0.8207 -0.5714
vn -0.0000 0.9629 0.2698
vn -0.0000 -0.9900 -0.1409
vn -0.0000 -0.8455 0.5340
vn -0.0000 -0.8455 -0.5340
vn -0.0000 -0.9900 0.1409
vn -0.0000 -1.0000 -0.0000
vt 0.191569 0.826661
vt 0.450394 0.865020
vt 0.191569 0.619365
vt 0.450394 0.616265
vt 0.337229 0.658670
vt 0.058136 0.826661
vt 0.450394 0.865020
vt 0.058136 0.619365
vt 0.450394 0.616265
vt 0.337229 0.818790
vt 0.394797 0.890005
vt 0.516669 0.911975
vt 0.394797 0.616265
vt 0.281632 0.627536
vt 0.516669 0.689587
vt 0.394797 0.890005
vt 0.394797 0.616265
vt 0.281632 0.849924
vt 0.450394 0.890005
vt 0.217514 0.847482
vt 0.572266 0.911975
vt 0.450394 0.616265
vt 0.217514 0.619365
vt 0.337229 0.627536
vt 0.572266 0.689587
vt 0.450394 0.890005
vt 0.032191 0.847482
vt 0.450394 0.616265
vt 0.032191 0.619365
vt 0.337229 0.849924
vt 0.281632 0.658670
vt 0.281632 0.818790
vt 0.124853 0.892717
vt 0.572266 0.800781
vt 0.516669 0.800781
vt 0.124853 0.852477
vt 0.450394 0.895998
vt 0.516669 0.856378
vt 0.572266 0.856378
vt 0.171183 0.879738
vt 0.158211 0.847729
vt 0.450394 0.890302
vt 0.078522 0.879738
vt 0.572266 0.745184
vt 0.091494 0.847729
vt 0.450394 0.890302
vt 0.516669 0.745184
vt 0.433715 0.616265
vt 0.055036 0.250418
vt 0.320550 0.818790
vt 0.433715 0.865020
vt 0.055036 0.457714
vt 0.433715 0.865020
vt 0.188469 0.457714
vt 0.433715 0.616265
vt 0.188469 0.250418
vt 0.320550 0.658670
vt 0.433715 0.895998
vt 0.121752 0.483530
vt 0.433715 0.890302
vt 0.155110 0.478783
vt 0.433715 0.890302
vt 0.088394 0.478783
s 0
usemtl Sprite.001
f 21/44/1 23/47/1 7/15/1 11/25/1
f 12/28/2 11/26/2 7/16/2 8/17/2
f 6/13/3 5/11/3 9/19/3 10/22/3
f 1/1/4 2/3/4 10/23/4 9/20/4
f 4/8/4 3/6/4 11/27/4 12/29/4
f 20/41/4 1/1/4 9/20/4 19/40/4
f 22/45/4 17/36/4 15/33/4 21/43/4
f 19/39/5 18/38/5 16/35/5 15/34/5
f 9/21/6 5/12/6 18/38/6 19/39/6
f 17/36/4 20/41/4 19/40/4 15/33/4
f 3/6/4 22/45/4 21/43/4 11/27/4
f 15/34/7 16/35/7 23/47/7 21/44/7
f 17/37/8 22/46/8 30/62/8 28/58/8
f 1/2/9 20/42/9 29/60/9 26/53/9
f 2/4/2 1/2/2 26/53/2 27/55/2
f 22/46/10 3/7/10 25/51/10 30/62/10
f 20/42/11 17/37/11 28/58/11 29/60/11
f 3/7/3 4/9/3 24/48/3 25/51/3
f 28/59/4 30/63/4 25/52/4 24/49/4 27/56/4 26/54/4 29/61/4
f 10/24/12 2/5/12 27/57/12 13/31/12 6/14/12
f 8/18/12 14/32/12 24/50/12 4/10/12 12/30/12
